<svg="svg w1400" id="map-svg" width="1400" height="900" viewBox="0 0 1400 900" fill="none" xmlns="http://www.w3.org/2000/svg">
<g id="town_map 1" clip-path="url(#clip0_297_216)">
<path id="Vector" d="M1400 0H0V900H1400V0Z" fill="#EBEBE6"/>
<path id="house Willy-Brandt-Alle 34" d="M1349.14 212.147L1321.14 212L1321 239L1349 239.146L1349.14 212.147Z" fill="#D9C8B0" stroke="#A89C8D" stroke-width="1.2"/>
<path id="house Willy-Brandt-Alle 30" d="M1313.57 212.764L1265.58 213.46L1266.12 250.456L1314.11 249.76L1313.57 212.764Z" fill="#D9C8B0" stroke="#A89C8D" stroke-width="1.2"/>
<path id="house Willy-Brandt-Alle 28" d="M1259 213L1229 213.209L1229.24 248.209L1259.24 247.999L1259 213Z" fill="#D9C8B0" stroke="#A89C8D" stroke-width="1.2"/>
<path id="house Willy-Brandt-Alle 26" d="M1218.43 211.531L1166.43 211.762L1166.61 253.761L1218.61 253.53L1218.43 211.531Z" fill="#D9C8B0" stroke="#A89C8D" stroke-width="1.2"/>
<path id="house Willy-Brandt-Alle 24" d="M1159.98 212L1117 213.265L1117.91 244.251L1160.89 242.987L1159.98 212Z" fill="#D9C8B0" stroke="#A89C8D" stroke-width="1.2"/>
<path id="house Willy-Brandt-Alle 22" d="M1069.86 217.686L1030.87 216.815L1029.91 259.804L1068.9 260.675L1069.86 217.686Z" fill="#D9C8B0" stroke="#A89C8D" stroke-width="1.2"/>
<path id="house Willy-Brandt-Alle 20" d="M1021.3 215.356L970.3 215L970 257.999L1021 258.355L1021.3 215.356Z" fill="#D9C8B0" stroke="#A89C8D" stroke-width="1.2"/>
<path id="house Willy-Brandt-Alle 19" d="M1346.89 146.649L1294.9 145.947L1294.51 174.945L1346.5 175.646L1346.89 146.649Z" fill="#D9C8B0" stroke="#A89C8D" stroke-width="1.2"/>
<path id="house Willy-Brandt-Alle 18" d="M892.843 243.89L873.957 259.453L847.936 264.794L842.106 237.808L853.759 212.012L881.263 220.344L892.843 243.89Z" fill="#D9C8B0" stroke="#A89C8D" stroke-width="1.2"/>
<path id="house Willy-Brandt-Alle 17" d="M1286.31 131.356L1235.31 131L1235 174.999L1286 175.355L1286.31 131.356Z" fill="#D9C8B0" stroke="#A89C8D" stroke-width="1.2"/>
<path id="house Willy-Brandt-Alle 16" d="M758.018 233.599L707.127 222.915L699.525 259.126L750.416 269.809L758.018 233.599Z" fill="#D9C8B0" stroke="#A89C8D" stroke-width="1.2"/>
<path id="house Willy-Brandt-Alle 15" d="M1228.69 142.121L1177.69 142.073L1177.66 174.073L1228.66 174.121L1228.69 142.121Z" fill="#D9C8B0" stroke="#A89C8D" stroke-width="1.2"/>
<path id="house Willy-Brandt-Alle 13" d="M1169 134L1117 134.597L1117.46 174.595L1169.46 173.997L1169 134Z" fill="#D9C8B0" stroke="#A89C8D" stroke-width="1.2"/>
<path id="house Willy-Brandt-Alle 11" d="M1070.2 148.347L1018.2 148L1018 177.999L1070 178.346L1070.2 148.347Z" fill="#D9C8B0" stroke="#A89C8D" stroke-width="1.2"/>
<path id="house Willy-Brandt-Alle 9" d="M1011.64 136.864L962 143L956 176.995L1010.99 177.859L1011.64 136.864Z" fill="#D9C8B0" stroke="#A89C8D" stroke-width="1.2"/>
<path id="house Willy-Brandt-Alle 7" d="M694 63.2474L786.129 63L786.184 83.5395L717.087 83.725L717.134 101.209L753.872 101.11L753.927 121.65L717.189 121.749L717.32 170.466L694.288 170.528L694 63.2474Z" fill="#D9C8B0" stroke="#A89C8D" stroke-width="1.2"/>
<path id="house Willy-Brandt-Alle 6" d="M201 223.357L240.897 217L242.117 224.656L226.118 227.205L233.148 271.319L225.247 272.578L218.218 228.464L202.22 231.013L201 223.357Z" fill="#D9C8B0" stroke="#A89C8D" stroke-width="1.2"/>
<path id="house Willy-Brandt-Alle 5" d="M231.988 120L206 134.988L226.484 170.505L252.471 155.516L231.988 120Z" fill="#D9C8B0" stroke="#A89C8D" stroke-width="1.2"/>
<path id="house Willy-Brandt-Alle 4" d="M117.5 209.129L77 209.129L77.0768 231.129L117.5 234.5L117.5 209.129Z" fill="#D9C8B0" stroke="#A89C8D" stroke-width="1.2"/>
<path id="house Willy-Brandt-Alle 3" d="M186.715 152.945L189.156 164.431L182.279 176.55L168.546 174.344L155.955 169.7L151.735 156.141L160.025 145.579L170.801 142.517L180.111 145.648L186.715 152.945Z" fill="#D9C8B0" stroke="#A89C8D" stroke-width="1.2"/>
<path id="house Willy-Brandt-Alle 2" d="M70.9258 209.317L4.35016 209.582L4.501 247.581L71.0767 247.317L70.9258 209.317Z" fill="#D9C8B0" stroke="#A89C8D" stroke-width="1.2"/>
<path id="house Willy-Brandt-Alle 1" d="M34.9974 133L5 133.393L5.5368 174.389L35.5342 173.996L34.9974 133Z" fill="#D9C8B0" stroke="#A89C8D" stroke-width="1.2"/>
<path id="street Willy-Brandt-Alle" d="M6 194H1392" stroke="#C2C2C2" stroke-width="26" stroke-linecap="round"/>
<path id="house Will-Brandt-Alle 14" d="M526.756 216.131L479.77 215L479 246.991L525.986 248.122L526.756 216.131Z" fill="#D9C8B0" stroke="#A89C8D" stroke-width="1.2"/>
<path id="house Will-Brandt-Alle 12" d="M465.194 213.883L418.205 214.899L418.897 246.892L465.886 245.875L465.194 213.883Z" fill="#D9C8B0" stroke="#A89C8D" stroke-width="1.2"/>
<path id="house Will-Brandt-Alle 10" d="M398.14 214.682L368.14 214.823L368.332 255.822L398.331 255.682L398.14 214.682Z" fill="#D9C8B0" stroke="#A89C8D" stroke-width="1.2"/>
<path id="house Will-Brandt-Alle 8" d="M339.882 217L340.236 231.396L295.85 232.488L296.918 275.875L282.422 276.232L281 218.449L339.882 217Z" fill="#D9C8B0" stroke="#A89C8D" stroke-width="1.2"/>
<path id="house Schillerstra&#195;&#159;e 24" d="M801.877 613.023L736.738 612L736 658.994L811 661.5L801.877 613.023Z" fill="#D9C8B0" stroke="#A89C8D" stroke-width="1.2"/>
<path id="house Schillerstra&#195;&#159;e 22" d="M732.501 615.279L682.546 613.176L681.704 633.158L731.66 635.261L732.501 615.279Z" fill="#D9C8B0" stroke="#A89C8D" stroke-width="1.2"/>
<path id="house Schillerstra&#195;&#159;e 20" d="M653.5 642L658 611L610 611L563.58 611L563.58 660.212L650.456 668.447L653.5 642Z" fill="#D9C8B0" stroke="#A89C8D" stroke-width="1.2"/>
<path id="house Schillerstra&#195;&#159;e 19" d="M795.431 563.584L735 563.584L731.51 586.683L794.684 588.573L795.431 563.584Z" fill="#D9C8B0" stroke="#A89C8D" stroke-width="1.2"/>
<path id="house Schillerstra&#195;&#159;e 18" d="M553.155 611.118L524.155 611L524 649L553 649.118L553.155 611.118Z" fill="#D9C8B0" stroke="#A89C8D" stroke-width="1.2"/>
<path id="house Schillerstra&#195;&#159;e 17" d="M729 545L694.5 545L689 584.913L723.946 584.913L729 545Z" fill="#D9C8B0" stroke="#A89C8D" stroke-width="1.2"/>
<path id="house Schillerstra&#195;&#159;e 16" d="M516.16 612.181L482.175 613.188L483.152 646.173L517.137 645.166L516.16 612.181Z" fill="#D9C8B0" stroke="#A89C8D" stroke-width="1.2"/>
<path id="house Schillerstra&#195;&#159;e 15" d="M666.5 552L621.57 552L621 586.995L661.995 587.663L666.5 552Z" fill="#D9C8B0" stroke="#A89C8D" stroke-width="1.2"/>
<path id="house Schillerstra&#195;&#159;e 14" d="M474.209 612.772L421.282 615.549L422.958 647.505L475.885 644.728L474.209 612.772Z" fill="#D9C8B0" stroke="#A89C8D" stroke-width="1.2"/>
<path id="house Schillerstra&#195;&#159;e 13" d="M616.028 567.312L529.504 566.196L529.246 586.194L615.77 587.31L616.028 567.312Z" fill="#D9C8B0" stroke="#A89C8D" stroke-width="1.2"/>
<path id="house Schillerstra&#195;&#159;e 12" d="M413.954 615L383 616.684L384.901 651.632L415.856 649.948L413.954 615Z" fill="#D9C8B0" stroke="#A89C8D" stroke-width="1.2"/>
<path id="house Schillerstra&#195;&#159;e 11" d="M521.964 550.965L429.085 550.549L429.085 590.5L521.799 587.964L521.964 550.965Z" fill="#D9C8B0" stroke="#A89C8D" stroke-width="1.2"/>
<path id="house Schillerstra&#195;&#159;e 10" d="M376.195 617.296L343.218 618.525L344.149 643.508L377.126 642.278L376.195 617.296Z" fill="#D9C8B0" stroke="#A89C8D" stroke-width="1.2"/>
<path id="house Schillerstra&#195;&#159;e 9" d="M417.896 561.955L311.291 562.555L311.465 593.554L418.071 592.955L417.896 561.955Z" fill="#D9C8B0" stroke="#A89C8D" stroke-width="1.2"/>
<path id="house Schillerstra&#195;&#159;e 8" d="M337.213 621.511L250.4 620L250 642.997L336.812 644.507L337.213 621.511Z" fill="#D9C8B0" stroke="#A89C8D" stroke-width="1.2"/>
<path id="house Schillerstra&#195;&#159;e 7" d="M307.5 539.5L260.882 535.086L255 594.964L303.045 593.881L307.5 539.5Z" fill="#D9C8B0" stroke="#A89C8D" stroke-width="1.2"/>
<path id="house Schillerstra&#195;&#159;e 6" d="M226.5 619L184 618L181.5 659.999L221.5 659.999L226.5 619Z" fill="#D9C8B0" stroke="#A89C8D" stroke-width="1.2"/>
<path id="house Schillerstra&#195;&#159;e 5" d="M235 551L192.981 551L191 592.953L227.959 594.699L235 551Z" fill="#D9C8B0" stroke="#A89C8D" stroke-width="1.2"/>
<path id="house Schillerstra&#195;&#159;e 4" d="M172 617.5L120.129 616L118 657.946L169.933 660.582L172 617.5Z" fill="#D9C8B0" stroke="#A89C8D" stroke-width="1.2"/>
<path id="house Schillerstra&#195;&#159;e 3" d="M175.326 558.67L124.427 555.465L122.29 589.397L173.189 592.603L175.326 558.67Z" fill="#D9C8B0" stroke="#A89C8D" stroke-width="1.2"/>
<path id="house Schillerstra&#195;&#159;e 2" d="M93.4497 614.003L39.4813 612.158L38.114 652.134L92.0825 653.98L93.4497 614.003Z" fill="#D9C8B0" stroke="#A89C8D" stroke-width="1.2"/>
<path id="house Schillerstra&#195;&#159;e 1" d="M91.8596 562.559L11.3782 557L9.99999 576.952L90.4815 582.512L91.8596 562.559Z" fill="#D9C8B0" stroke="#A89C8D" stroke-width="1.2"/>
<path id="street Schillerstra&#195;&#159;e" d="M-10 600L267.904 608L529.886 599L802 601" stroke="#C2C2C2" stroke-width="16" stroke-linecap="round" stroke-linejoin="round"/>
<path id="park-4" d="M678 33L284.5 12.5V178H678V33Z" fill="#A7D99B" stroke="#679B5B" stroke-width="2"/>
<path id="park-3" d="M613 394H480V431V480.5H535L538 424.5L613 431V394Z" fill="#A7D99B" stroke="#679B5B" stroke-width="2"/>
<path id="park-3_2" d="M1398 260L1180.5 265.346V385.388L1165 500.084L1199 503L1208.5 457.316L1297 447.596L1398 412.118V260Z" fill="#A7D99B" stroke="#679B5B" stroke-width="2"/>
<path id="park-1" d="M812 632L828 716H934L1074 703V553L934 292H902L934 428V537.491L800 553L812 632Z" fill="#A7D99B" stroke="#679B5B" stroke-width="2"/>
<path id="house Maschweg 4" d="M519.91 861.758L465.911 861.382L465.709 890.382L519.708 890.757L519.91 861.758Z" fill="#D9C8B0" stroke="#A89C8D" stroke-width="1.2"/>
<path id="house Maschweg 3" d="M430.017 847.024L383.017 847L383 879L430 879.024L430.017 847.024Z" fill="#D9C8B0" stroke="#A89C8D" stroke-width="1.2"/>
<path id="house Maschweg 2" d="M515.769 819.001L466.774 818.34L466.261 856.337L515.256 856.998L515.769 819.001Z" fill="#D9C8B0" stroke="#A89C8D" stroke-width="1.2"/>
<path id="house Maschweg 1" d="M430.255 801.122L395.257 800.754L394.846 839.752L429.844 840.12L430.255 801.122Z" fill="#D9C8B0" stroke="#A89C8D" stroke-width="1.2"/>
<path id="street Maschweg" d="M448 740L447.875 900.011" stroke="#C2C2C2" stroke-width="26" stroke-linecap="round"/>
<path id="house L&#195;&#188;bbeckerstra&#195;&#159;e 16" d="M1134.94 818.107L1148.47 822.757L1134.19 864.271L1174.76 878.222L1170.07 891.84L1115.98 873.238L1134.94 818.107Z" fill="#D9C8B0" stroke="#A89C8D" stroke-width="1.2"/>
<path id="house L&#195;&#188;bbeckerstra&#195;&#159;e 14" d="M1162.77 417.13L1119.63 416L1119 439.992L1162.14 441.122L1162.77 417.13Z" fill="#D9C8B0" stroke="#A89C8D" stroke-width="1.2"/>
<path id="house L&#195;&#188;bbeckerstra&#195;&#159;e 13" d="M1082.04 822.544L1041.03 825.32L1046.09 887.859L1082.04 891L1082.04 822.544Z" fill="#D9C8B0" stroke="#A89C8D" stroke-width="1.2"/>
<path id="house L&#195;&#188;bbeckerstra&#195;&#159;e 13_2" d="M1183.58 755L1141 774.892L1157.51 810.227L1200.09 790.335L1183.58 755Z" fill="#D9C8B0" stroke="#A89C8D" stroke-width="1.2"/>
<path id="house L&#195;&#188;bbeckerstra&#195;&#159;e 11" d="M1079.96 771L1041 772.784L1042.92 814.74L1079.96 811.5L1079.96 771Z" fill="#D9C8B0" stroke="#A89C8D" stroke-width="1.2"/>
<path id="house L&#195;&#188;bbeckerstra&#195;&#159;e 11_2" d="M1159.58 707L1117 726.892L1133.51 762.227L1176.09 742.335L1159.58 707Z" fill="#D9C8B0" stroke="#A89C8D" stroke-width="1.2"/>
<path id="house L&#195;&#188;bbeckerstra&#195;&#159;e 10" d="M1168.81 362.386L1119.83 361.034L1118.78 399.02L1167.76 400.372L1168.81 362.386Z" fill="#D9C8B0" stroke="#A89C8D" stroke-width="1.2"/>
<path id="house L&#195;&#188;bbeckerstra&#195;&#159;e 9" d="M1072.98 381L1055.14 381.685L1056.37 413.662L1074.21 412.976L1072.98 381Z" fill="#D9C8B0" stroke="#A89C8D" stroke-width="1.2"/>
<path id="house L&#195;&#188;bbeckerstra&#195;&#159;e 8" d="M1169.99 318.69L1119.99 318.056L1119.61 348.054L1169.61 348.688L1169.99 318.69Z" fill="#D9C8B0" stroke="#A89C8D" stroke-width="1.2"/>
<path id="house L&#195;&#188;bbeckerstra&#195;&#159;e 7" d="M1072.98 333L1045 334.075L1046.23 366.051L1074.21 364.976L1072.98 333Z" fill="#D9C8B0" stroke="#A89C8D" stroke-width="1.2"/>
<path id="house L&#195;&#188;bbeckerstra&#195;&#159;e 6" d="M1158.74 252.766L1119.74 253.151L1120.22 301.748L1159.22 301.363L1158.74 252.766Z" fill="#D9C8B0" stroke="#A89C8D" stroke-width="1.2"/>
<path id="house L&#195;&#188;bbeckerstra&#195;&#159;e 5" d="M1075.97 274L1029 275.558L1030.43 318.535L1077.4 316.976L1075.97 274Z" fill="#D9C8B0" stroke="#A89C8D" stroke-width="1.2"/>
<path id="house L&#195;&#188;bbeckerstra&#195;&#159;e 3" d="M1082.6 123.001L1029.62 121.465L1028.45 89.9993L1081.43 91.5351L1082.6 123.001Z" fill="#D9C8B0" stroke="#A89C8D" stroke-width="1.2"/>
<path id="house L&#195;&#188;bbeckerstra&#195;&#159;e 2" d="M1376.5 9.24142L1119.66 7L1119 82.3984L1375.84 84.6398L1376.5 9.24142Z" fill="#D9C8B0" stroke="#A89C8D" stroke-width="1.2"/>
<path id="house L&#195;&#188;bbeckerstra&#195;&#159;e 1" d="M1077.67 17.4938L928.871 15.416L928.198 63.6442L1076.99 65.7219L1077.67 17.4938Z" fill="#D9C8B0" stroke="#A89C8D" stroke-width="1.2"/>
<path id="street L&#195;&#188;bbeckerstra&#195;&#159;e" d="M1098 -1V900" stroke="#C2C2C2" stroke-width="26" stroke-linecap="round"/>
<path id="lake-3" d="M916 608L946 588L976 598L986 633L956 648L921 638L916 608Z" fill="#8AC7E6" stroke="#5C96A7" stroke-width="1.5"/>
<path id="lake-2" d="M449 70L467 60L486 56L500.5 65.5L516 81L543.5 100L536.5 126L516 129L497 131.5L476 126L458.5 116L446 100L449 70Z" fill="#8AC7E6" stroke="#5C96A7" stroke-width="1.5"/>
<path id="lake-1" d="M127.5 749L145 746L165 749L181 758.5L195 769L197.5 790.5L190 809L172 816.5L155 819L137 809L120 799V769L127.5 749Z" fill="#8AC7E6" stroke="#5C96A7" stroke-width="1.5"/>
<path id="house Kielerstra&#195;&#159;e 2" d="M874.117 889.859L870.889 853L830.5 853L789 853L792 889.859L874.117 889.859Z" fill="#D9C8B0" stroke="#A89C8D" stroke-width="1.2"/>
<path id="house Kielerstra&#195;&#159;e 1" d="M959.6 828.9L946.5 844.2L928.8 852.9L911 840.1L912.4 818.4L927.9 801L951.3 807.6L959.6 828.9Z" fill="#D9C8B0" stroke="#A89C8D" stroke-width="1.2"/>
<path id="street Kielerstra&#195;&#159;e" d="M876 740L896 900" stroke="#C2C2C2" stroke-width="26" stroke-linecap="round"/>
<path id="house Karl-Marx-Allee 7" d="M279 811.356L295.685 809.762L300.279 857.843L350.627 853.033L351.711 864.381L284.677 870.785L279 811.356Z" fill="#D9C8B0" stroke="#A89C8D" stroke-width="1.2"/>
<path id="house Karl-Marx-Allee 6" d="M240 502.5L199.849 499L196 539.819L234.828 543.48L240 502.5Z" fill="#D9C8B0" stroke="#A89C8D" stroke-width="1.2"/>
<path id="house Karl-Marx-Allee 4" d="M243.819 448.646L202.904 446L200 490.906L240.915 493.552L243.819 448.646Z" fill="#D9C8B0" stroke="#A89C8D" stroke-width="1.2"/>
<path id="house Karl-Marx-Allee 3" d="M305.462 491.97L266.665 488L263 523.813L301.797 527.783L305.462 491.97Z" fill="#D9C8B0" stroke="#A89C8D" stroke-width="1.2"/>
<path id="house Karl-Marx-Allee 2" d="M251.974 12L205 13.5583L206.426 56.5346L253.4 54.9764L251.974 12Z" fill="#D9C8B0" stroke="#A89C8D" stroke-width="1.2"/>
<path id="house Karl-Marx-Allee 1" d="M318.819 386.646L277.904 384L275 428.906L315.915 431.552L318.819 386.646Z" fill="#D9C8B0" stroke="#A89C8D" stroke-width="1.2"/>
<path id="street Karl-Marx-Allee" d="M273 -1L267 216.399L256 477.885L228 713.527L240 899" stroke="#C2C2C2" stroke-width="16" stroke-linecap="round" stroke-linejoin="round"/>
<path id="house Gojenbergsweg 7" d="M1392.1 437.609L1347.25 434L1345 461.91L1389.86 465.519L1392.1 437.609Z" fill="#D9C8B0" stroke="#A89C8D" stroke-width="1.2"/>
<path id="house Gojenbergsweg 6" d="M1388 523.482L1359.63 521L1354 585.326L1382.37 587.808L1388 523.482Z" fill="#D9C8B0" stroke="#A89C8D" stroke-width="1.2"/>
<path id="house Gojenbergsweg 5" d="M1306 469H1261V508H1306V469Z" fill="#D9C8B0" stroke="#A89C8D" stroke-width="1.2"/>
<path id="house Gojenbergsweg 4" d="M1307.83 659.425L1215.99 617.891L1226.23 595.233L1302.26 629.615L1305.41 622.644L1261.62 602.84L1271.87 580.182L1315.66 599.986L1333.2 561.206L1349.01 568.357L1307.83 659.425Z" fill="#D9C8B0" stroke="#A89C8D" stroke-width="1.2"/>
<path id="house Gojenbergsweg 3" d="M1253.75 478.268L1210.77 477L1210 502.989L1252.98 504.256L1253.75 478.268Z" fill="#D9C8B0" stroke="#A89C8D" stroke-width="1.2"/>
<path id="house Gojenbergsweg 2" d="M1160.98 526L1128 527.152L1129.29 564.129L1162.27 562.977L1160.98 526Z" fill="#D9C8B0" stroke="#A89C8D" stroke-width="1.2"/>
<path id="house Gojenbergsweg 1" d="M1162.58 455.432L1124.63 453.534L1122.58 494.483L1160.54 496.381L1162.58 455.432Z" fill="#D9C8B0" stroke="#A89C8D" stroke-width="1.2"/>
<path id="street Gojenbergsweg" d="M1104 505L1210.06 520H1315.58L1400 481" stroke="#C2C2C2" stroke-width="16" stroke-linecap="round" stroke-linejoin="round"/>
<path id="house Goethestra&#195;&#159;e 10" d="M703.67 871.013L669.685 870L669 892.99L702.985 894.003L703.67 871.013Z" fill="#D9C8B0" stroke="#A89C8D" stroke-width="1.2"/>
<path id="house Goethestra&#195;&#159;e 8" d="M700.401 800.071L672.411 799.328L670.775 860.925L698.765 861.668L700.401 800.071Z" fill="#D9C8B0" stroke="#A89C8D" stroke-width="1.2"/>
<path id="house Goethestra&#195;&#159;e 6" d="M715.008 771.017L671.054 769L670 791.976L713.954 793.993L715.008 771.017Z" fill="#D9C8B0" stroke="#A89C8D" stroke-width="1.2"/>
<path id="house Goethestra&#195;&#159;e 4" d="M636.084 861.669L576.907 891.688L569.141 876.378L613.58 853.835L607.307 841.47L583.614 853.489L575.788 838.061L599.481 826.042L581.439 790.476L596.176 783L636.084 861.669Z" fill="#D9C8B0" stroke="#A89C8D" stroke-width="1.2"/>
<path id="house Goethestra&#195;&#159;e 2" d="M674.382 365L626 372.758L633.916 422.127L682.298 414.369L674.382 365Z" fill="#D9C8B0" stroke="#A89C8D" stroke-width="1.2"/>
<path id="house Goethestra&#195;&#159;e 1" d="M741 335.5L705 341.19L711.5 383.162L754 402.5L741 335.5Z" fill="#D9C8B0" stroke="#A89C8D" stroke-width="1.2"/>
<path id="street Goethestra&#195;&#159;e" d="M663.02 194L700 393.49L665.725 651.745L654 910" stroke="#C2C2C2" stroke-width="16" stroke-linecap="round" stroke-linejoin="round"/>
<path id="house Elbstra&#195;&#159;e 16" d="M836.261 468.499L771 485.118L782.105 528.726L840.5 512.5L836.261 468.499Z" fill="#D9C8B0" stroke="#A89C8D" stroke-width="1.2"/>
<path id="house Elbstra&#195;&#159;e 14" d="M762.906 486.464L737.371 491.362L747.933 546.43L773.468 541.532L762.906 486.464Z" fill="#D9C8B0" stroke="#A89C8D" stroke-width="1.2"/>
<path id="house Elbstra&#195;&#159;e 12" d="M733.5 493L699.386 500L694.5 537.975L727.932 537.975L733.5 493Z" fill="#D9C8B0" stroke="#A89C8D" stroke-width="1.2"/>
<path id="house Elbstra&#195;&#159;e 11" d="M754 413L712.5 402L701.5 476L767.5 460.5L754 413Z" fill="#D9C8B0" stroke="#A89C8D" stroke-width="1.2"/>
<path id="house Elbstra&#195;&#159;e 10" d="M672.5 504L522.928 507.634L523.037 538.634L667.5 538.634L672.5 504Z" fill="#D9C8B0" stroke="#A89C8D" stroke-width="1.2"/>
<path id="house Elbstra&#195;&#159;e 9" d="M662 429L623 429.114L623.143 478.114L662.143 478L662 429Z" fill="#D9C8B0" stroke="#A89C8D" stroke-width="1.2"/>
<path id="house Elbstra&#195;&#159;e 8" d="M514 543L514 503.171L485.5 504.836L457 503.171L462 543L514 543Z" fill="#D9C8B0" stroke="#A89C8D" stroke-width="1.2"/>
<path id="house Elbstra&#195;&#159;e 7" d="M607.619 446.19L554.89 443.07L552 478.12L605.729 478.12L607.619 446.19Z" fill="#D9C8B0" stroke="#A89C8D" stroke-width="1.2"/>
<path id="house Elbstra&#195;&#159;e 6" d="M447 503.5L402 500.885L402 534.5L451 537.5L447 503.5Z" fill="#D9C8B0" stroke="#A89C8D" stroke-width="1.2"/>
<path id="house Elbstra&#195;&#159;e 5" d="M466.491 400.02L417.5 400.02L413 475.473L466.491 481L466.491 400.02Z" fill="#D9C8B0" stroke="#A89C8D" stroke-width="1.2"/>
<path id="house Elbstra&#195;&#159;e 4" d="M395.848 496.695L360.889 495L359 533.954L393.959 535.649L395.848 496.695Z" fill="#D9C8B0" stroke="#A89C8D" stroke-width="1.2"/>
<path id="house Elbstra&#195;&#159;e 3" d="M411 410.482L382.628 408L377 472.326L405.372 474.808L411 410.482Z" fill="#D9C8B0" stroke="#A89C8D" stroke-width="1.2"/>
<path id="house Elbstra&#195;&#159;e 2" d="M354.493 494.716L313.583 492L311 530.914L351.91 533.63L354.493 494.716Z" fill="#D9C8B0" stroke="#A89C8D" stroke-width="1.2"/>
<path id="house Elbstra&#195;&#159;e 1" d="M355.86 446.559L275.378 441L274 460.952L354.481 466.512L355.86 446.559Z" fill="#D9C8B0" stroke="#A89C8D" stroke-width="1.2"/>
<path id="street Elbstra&#195;&#159;e" d="M257 477L469.124 492H680.166L849 453" stroke="#C2C2C2" stroke-width="16" stroke-linecap="round" stroke-linejoin="round"/>
<path id="house Berlinerstra&#195;&#159;e 22" d="M882.533 288L844 294.014L848 330.5L887.777 321.593L882.533 288Z" fill="#D9C8B0" stroke="#A89C8D" stroke-width="1.2"/>
<path id="house Berlinerstra&#195;&#159;e 20" d="M819.5 297L759 303.583L773 391L827.5 367.5L819.5 297Z" fill="#D9C8B0" stroke="#A89C8D" stroke-width="1.2"/>
<path id="house Berlinerstra&#195;&#159;e 18" d="M753.5 304.5L699 311.082L703.302 337.737L759.574 328.655L753.5 304.5Z" fill="#D9C8B0" stroke="#A89C8D" stroke-width="1.2"/>
<path id="house Berlinerstra&#195;&#159;e 16" d="M673.5 316L586.5 327L590.5 367L680.5 355.5L673.5 316Z" fill="#D9C8B0" stroke="#A89C8D" stroke-width="1.2"/>
<path id="house Berlinerstra&#195;&#159;e 15" d="M636.839 247L598 250.535L601.716 291.366L640.555 287.831L636.839 247Z" fill="#D9C8B0" stroke="#A89C8D" stroke-width="1.2"/>
<path id="house Berlinerstra&#195;&#159;e 14" d="M579.814 326L527 330.434L530.597 373.283L583.412 368.849L579.814 326Z" fill="#D9C8B0" stroke="#A89C8D" stroke-width="1.2"/>
<path id="house Berlinerstra&#195;&#159;e 13" d="M579.979 246L543 247.236L544.637 296.209L581.617 294.973L579.979 246Z" fill="#D9C8B0" stroke="#A89C8D" stroke-width="1.2"/>
<path id="house Berlinerstra&#195;&#159;e 12" d="M516.979 330L474 331.351L474.88 359.337L517.858 357.986L516.979 330Z" fill="#D9C8B0" stroke="#A89C8D" stroke-width="1.2"/>
<path id="house Berlinerstra&#195;&#159;e 11" d="M457.977 267L404 268.566L405.16 308.549L459.137 306.983L457.977 267Z" fill="#D9C8B0" stroke="#A89C8D" stroke-width="1.2"/>
<path id="house Berlinerstra&#195;&#159;e 10" d="M463.989 329L404.902 335L404 381.991L463.989 383.143L463.989 329Z" fill="#D9C8B0" stroke="#A89C8D" stroke-width="1.2"/>
<path id="house Berlinerstra&#195;&#159;e 9" d="M391.901 279L333 282.417L334.158 302.383L393.059 298.966L391.901 279Z" fill="#D9C8B0" stroke="#A89C8D" stroke-width="1.2"/>
<path id="house Berlinerstra&#195;&#159;e 8" d="M390.198 339.215L349.199 339L349 376.999L389.999 377.214L390.198 339.215Z" fill="#D9C8B0" stroke="#A89C8D" stroke-width="1.2"/>
<path id="house Berlinerstra&#195;&#159;e 8_2" d="M314.934 338.692L285.983 337L284 370.942L312.951 372.634L314.934 338.692Z" fill="#D9C8B0" stroke="#A89C8D" stroke-width="1.2"/>
<path id="house Berlinerstra&#195;&#159;e 7" d="M324.788 284.804L277.942 281L276 304.921L322.846 308.725L324.788 284.804Z" fill="#D9C8B0" stroke="#A89C8D" stroke-width="1.2"/>
<path id="house Berlinerstra&#195;&#159;e 6" d="M163.82 336L220.848 354.968L216.114 369.201L193.246 361.595L178.16 406.952L166.773 403.165L181.859 357.808L159.086 350.233L163.82 336Z" fill="#D9C8B0" stroke="#A89C8D" stroke-width="1.2"/>
<path id="house Berlinerstra&#195;&#159;e 5" d="M193.786 257.397L140.783 257.878L138 306.996L192.993 307.86L193.786 257.397Z" fill="#D9C8B0" stroke="#A89C8D" stroke-width="1.2"/>
<path id="house Berlinerstra&#195;&#159;e 4" d="M112.5 331L61.7307 331L61 359.991L109.715 365.5L112.5 331Z" fill="#D9C8B0" stroke="#A89C8D" stroke-width="1.2"/>
<path id="house Berlinerstra&#195;&#159;e 3" d="M117.622 248.873L68.3986 250.782L66.3305 305.579L113.317 307.274L117.622 248.873Z" fill="#D9C8B0" stroke="#A89C8D" stroke-width="1.2"/>
<path id="house Berlinerstra&#195;&#159;e 2" d="M54 374.5L3.54633 371L3.54633 327.838L56.514 329.69L54 374.5Z" fill="#D9C8B0" stroke="#A89C8D" stroke-width="1.2"/>
<path id="house Berlinerstra&#195;&#159;e 1" d="M61.3873 264.766L6.55847 264L5.99998 303.996L60.8288 304.762L61.3873 264.766Z" fill="#D9C8B0" stroke="#A89C8D" stroke-width="1.2"/>
<path id="street Berlinerstra&#195;&#159;e" d="M6 316L331.544 324L617.261 310L948 269" stroke="#C2C2C2" stroke-width="16" stroke-linecap="round" stroke-linejoin="round"/>
<path id="house Bergedorferstra&#195;&#159;e 24" d="M1082 729L998.866 733.867L1005 765L1082 762L1082 729Z" fill="#D9C8B0" stroke="#A89C8D" stroke-width="1.2"/>
<path id="house Bergedorferstra&#195;&#159;e 22" d="M993.569 735L951 741.075L956.086 776.714L998.655 770.639L993.569 735Z" fill="#D9C8B0" stroke="#A89C8D" stroke-width="1.2"/>
<path id="house Bergedorferstra&#195;&#159;e 20" d="M943.726 742.5L903 750.517L904.807 778.458L943.726 775.942L943.726 742.5Z" fill="#D9C8B0" stroke="#A89C8D" stroke-width="1.2"/>
<path id="house Bergedorferstra&#195;&#159;e 18" d="M859.617 743.543L804.235 743L803.251 843.321L869.5 843.321L864.5 795L859.617 743.543Z" fill="#D9C8B0" stroke="#A89C8D" stroke-width="1.2"/>
<path id="house Bergedorferstra&#195;&#159;e 16" d="M797.921 742.948L767.96 741.418L764.131 816.394L794.092 817.924L797.921 742.948Z" fill="#D9C8B0" stroke="#A89C8D" stroke-width="1.2"/>
<path id="house Bergedorferstra&#195;&#159;e 15" d="M723.773 644.592L679.646 643.392L677.616 718.024L721.743 719.224L723.773 644.592Z" fill="#D9C8B0" stroke="#A89C8D" stroke-width="1.2"/>
<path id="house Bergedorferstra&#195;&#159;e 14" d="M758.093 740.525L720.124 739L719 766.977L756.969 768.502L758.093 740.525Z" fill="#D9C8B0" stroke="#A89C8D" stroke-width="1.2"/>
<path id="house Bergedorferstra&#195;&#159;e 12" d="M707.218 739.871L673.26 738.19L672.123 761.162L706.081 762.843L707.218 739.871Z" fill="#D9C8B0" stroke="#A89C8D" stroke-width="1.2"/>
<path id="house Bergedorferstra&#195;&#159;e 11" d="M650.015 678.62L589 678.62L590.037 717.022L650.015 715.402L650.015 678.62Z" fill="#D9C8B0" stroke="#A89C8D" stroke-width="1.2"/>
<path id="house Bergedorferstra&#195;&#159;e 10" d="M650.307 739.649L579 739.649L579.649 770.642L648 769.5L650.307 739.649Z" fill="#D9C8B0" stroke="#A89C8D" stroke-width="1.2"/>
<path id="house Bergedorferstra&#195;&#159;e 9" d="M582.778 686.455L534.812 688.268L535.907 717.247L583.873 715.434L582.778 686.455Z" fill="#D9C8B0" stroke="#A89C8D" stroke-width="1.2"/>
<path id="house Bergedorferstra&#195;&#159;e 8" d="M571.748 742.268L528.766 741L528 766.989L570.981 768.256L571.748 742.268Z" fill="#D9C8B0" stroke="#A89C8D" stroke-width="1.2"/>
<path id="house Bergedorferstra&#195;&#159;e 7" d="M516.574 656.309L414.722 659.5L414.722 715.562L453.5 720L526.981 717.338L516.574 656.309Z" fill="#D9C8B0" stroke="#A89C8D" stroke-width="1.2"/>
<path id="house Bergedorferstra&#195;&#159;e 6" d="M521 740.924L464.351 740.924L464.351 810.657L516.351 810.472L521 740.924Z" fill="#D9C8B0" stroke="#A89C8D" stroke-width="1.2"/>
<path id="house Bergedorferstra&#195;&#159;e 5" d="M399.4 681.9L387 697.8L369.6 702.4L352 692.6L358.1 674.1L370 663L387 665.9L399.4 681.9Z" fill="#D9C8B0" stroke="#A89C8D" stroke-width="1.2"/>
<path id="house Bergedorferstra&#195;&#159;e 4" d="M352 737.425L369.071 736.098L372.358 778.371L424.419 774.324L425.512 788.381L356.379 793.756L352 737.425Z" fill="#D9C8B0" stroke="#A89C8D" stroke-width="1.2"/>
<path id="house Bergedorferstra&#195;&#159;e 3" d="M349.243 667.328L288.685 660L284 698.718L344.558 706.045L349.243 667.328Z" fill="#D9C8B0" stroke="#A89C8D" stroke-width="1.2"/>
<path id="house Bergedorferstra&#195;&#159;e 2" d="M273 747.588L286.455 746.482L289.773 786.846L344.289 782.364L345.395 795.818L277.425 801.407L273 747.588Z" fill="#D9C8B0" stroke="#A89C8D" stroke-width="1.2"/>
<path id="house Bergedorferstra&#195;&#159;e 1" d="M281.099 673.186L246.304 669.399L243.599 694.252L278.393 698.04L281.099 673.186Z" fill="#D9C8B0" stroke="#A89C8D" stroke-width="1.2"/>
<path id="street Bergedorferstra&#195;&#159;e" d="M228 705L448.846 731L653.631 727L890.538 734L1098 713" stroke="#C2C2C2" stroke-width="16" stroke-linecap="round" stroke-linejoin="round"/>
<path id="house Beckstra&#195;&#159;e 9" d="M926.5 463L865 472.554L870.5 536.5L926.5 531.5L926.5 463Z" fill="#D9C8B0" stroke="#A89C8D" stroke-width="1.2"/>
<path id="house Beckstra&#195;&#159;e 7" d="M917 432.5L861 440.644L864 465.5L921.5 457.5L917 432.5Z" fill="#D9C8B0" stroke="#A89C8D" stroke-width="1.2"/>
<path id="house Beckstra&#195;&#159;e 5" d="M911 392.5L858 408L861 434.5L918.5 425.5L911 392.5Z" fill="#D9C8B0" stroke="#A89C8D" stroke-width="1.2"/>
<path id="house Beckstra&#195;&#159;e 3" d="M903.316 353L853 366.125L856.5 401L911.646 384.932L903.316 353Z" fill="#D9C8B0" stroke="#A89C8D" stroke-width="1.2"/>
<path id="house Beckstra&#195;&#159;e 2" d="M828 376L762 403.686L775 455.5L833.5 444L828 376Z" fill="#D9C8B0" stroke="#A89C8D" stroke-width="1.2"/>
<path id="house Beckstra&#195;&#159;e 1" d="M903 324L848.73 337.077L851.5 358.5L907.955 344.565L903 324Z" fill="#D9C8B0" stroke="#A89C8D" stroke-width="1.2"/>
<path id="street Beckstra&#195;&#159;e" d="M785 -28L830 267.016L857 547" stroke="#C2C2C2" stroke-width="16" stroke-linecap="round" stroke-linejoin="round"/>
<path id="house Backstra&#195;&#159;e 20" d="M1384.62 878.082L1322.11 884.1L1320.8 870.463L1345.78 868.058L1341.83 827.047L1354.38 825.84L1358.32 866.85L1383.31 864.445L1384.62 878.082Z" fill="#D9C8B0" stroke="#A89C8D" stroke-width="1.2"/>
<path id="house Bachstra&#195;&#159;e 15" d="M1288.02 772.524L1250.52 791.455L1269.46 828.947L1306.95 810.015L1288.02 772.524Z" fill="#D9C8B0" stroke="#A89C8D" stroke-width="1.2"/>
<path id="house Bachstra&#195;&#159;e 13" d="M1281.99 743L1236 767.259L1246.26 786.718L1292.26 762.459L1281.99 743Z" fill="#D9C8B0" stroke="#A89C8D" stroke-width="1.2"/>
<path id="house Bachstra&#195;&#159;e 11" d="M1257.48 706.504L1215.72 728.071L1233.61 762.723L1275.37 741.155L1257.48 706.504Z" fill="#D9C8B0" stroke="#A89C8D" stroke-width="1.2"/>
<path id="house Bachstra&#195;&#159;e 9" d="M1231.65 667L1195 685.384L1214.28 723.819L1250.93 705.435L1231.65 667Z" fill="#D9C8B0" stroke="#A89C8D" stroke-width="1.2"/>
<path id="house Bachstra&#195;&#159;e 7" d="M1215.69 640.812L1177.97 659.286L1188.97 681.738L1226.69 663.264L1215.69 640.812Z" fill="#D9C8B0" stroke="#A89C8D" stroke-width="1.2"/>
<path id="house Bachstra&#195;&#159;e 5" d="M906.45 74L880 88.157L921.605 165.888L948.055 151.731L906.45 74Z" fill="#D9C8B0" stroke="#A89C8D" stroke-width="1.2"/>
<path id="house Bachstra&#195;&#159;e 3" d="M900.68 31.4401L858.838 52.8465L873.412 81.3348L915.254 59.9283L900.68 31.4401Z" fill="#D9C8B0" stroke="#A89C8D" stroke-width="1.2"/>
<path id="house Bachstra&#195;&#159;e 1" d="M870.282 -3.00001L839 12.6981L854.698 43.9802L885.98 28.2821L870.282 -3.00001Z" fill="#D9C8B0" stroke="#A89C8D" stroke-width="1.2"/>
<path id="Bachstra&#195;&#159;e" d="M809 -1L1284 900" stroke="#C2C2C2" stroke-width="26" stroke-linecap="round"/>
<path id="house Alsterstra&#195;&#159;e 16" d="M83.5452 797.942L53.6331 795.647L48.398 863.881L78.3101 866.176L83.5452 797.942Z" fill="#D9C8B0" stroke="#A89C8D" stroke-width="1.2"/>
<path id="house Alsterstra&#195;&#159;e 14" d="M86.0044 758.769L36.0861 755.912L34.3719 785.863L84.2902 788.72L86.0044 758.769Z" fill="#D9C8B0" stroke="#A89C8D" stroke-width="1.2"/>
<path id="house Alsterstra&#195;&#159;e 13" d="M167.329 870.406L108.493 866L107 885.944L165.835 890.35L167.329 870.406Z" fill="#D9C8B0" stroke="#A89C8D" stroke-width="1.2"/>
<path id="house Alsterstra&#195;&#159;e 12" d="M89.624 710.686L34.7477 707L32 747.908L86.8763 751.594L89.624 710.686Z" fill="#D9C8B0" stroke="#A89C8D" stroke-width="1.2"/>
<path id="house Alsterstra&#195;&#159;e 11" d="M168.734 843.438L109.899 839.033L108.405 858.977L167.241 863.383L168.734 843.438Z" fill="#D9C8B0" stroke="#A89C8D" stroke-width="1.2"/>
<path id="house Alsterstra&#195;&#159;e 10" d="M92.9781 660.797L38.1072 657.03L35.2998 697.934L90.1707 701.7L92.9781 660.797Z" fill="#D9C8B0" stroke="#A89C8D" stroke-width="1.2"/>
<path id="house Alsterstra&#195;&#159;e 9" d="M168.381 666.847L116.426 664.677L114.756 704.642L166.711 706.813L168.381 666.847Z" fill="#D9C8B0" stroke="#A89C8D" stroke-width="1.2"/>
<path id="house Alsterstra&#195;&#159;e 8" d="M101.659 474.724L52.7996 471.013L46.8318 549.595L95.6911 553.306L101.659 474.724Z" fill="#D9C8B0" stroke="#A89C8D" stroke-width="1.2"/>
<path id="house Alsterstra&#195;&#159;e 7" d="M156.052 507.415L127.114 505.517L124.235 549.422L153.172 551.321L156.052 507.415Z" fill="#D9C8B0" stroke="#A89C8D" stroke-width="1.2"/>
<path id="house Alsterstra&#195;&#159;e 6" d="M106.528 427.795L31.2635 422.729L28.6445 461.639L103.909 466.705L106.528 427.795Z" fill="#D9C8B0" stroke="#A89C8D" stroke-width="1.2"/>
<path id="house Alsterstra&#195;&#159;e 5" d="M160.026 461.383L131.123 459.009L128.012 496.881L156.915 499.255L160.026 461.383Z" fill="#D9C8B0" stroke="#A89C8D" stroke-width="1.2"/>
<path id="house Alsterstra&#195;&#159;e 4" d="M109.819 372.646L68.904 370L66 414.906L106.915 417.552L109.819 372.646Z" fill="#D9C8B0" stroke="#A89C8D" stroke-width="1.2"/>
<path id="house Alsterstra&#195;&#159;e 3" d="M205.969 77.2133L153.969 77.2768L154.02 119.277L206.02 119.213L205.969 77.2133Z" fill="#D9C8B0" stroke="#A89C8D" stroke-width="1.2"/>
<path id="house Alsterstra&#195;&#159;e 2" d="M25.7793 21.2341L37.3758 18.1485L61.0124 106.981L96.2851 97.596L104.186 127.289L57.3167 139.76L25.7793 21.2341Z" fill="#D9C8B0" stroke="#A89C8D" stroke-width="1.2"/>
<path id="house Alsterstra&#195;&#159;e 1" d="M193.979 14L157 15.2363L158.637 64.2089L195.617 62.9726L193.979 14Z" fill="#D9C8B0" stroke="#A89C8D" stroke-width="1.2"/>
<path id="street Alsterstra&#195;&#159;e" d="M144 -14L90 900" stroke="#C2C2C2" stroke-width="16" stroke-linecap="round"/>
</g>
<defs>
<clipPath id="clip0_297_216">
<rect width="1400" height="900" fill="white"/>
</clipPath>
</defs>
</svg>
